<?xml version="1.0" encoding="UTF-8"?>
<svg width="100" height="100" viewBox="0 0 100 100" xmlns="http://www.w3.org/2000/svg">
  <circle cx="50" cy="50" r="35" fill="none" stroke="#F59E0B" stroke-width="2" />
  <circle cx="50" cy="50" r="25" fill="none" stroke="#F59E0B" stroke-width="2" />
  <path d="M50 15 L55 25 L45 25 Z" fill="#F59E0B" />
  <path d="M50 85 L55 75 L45 75 Z" fill="#F59E0B" />
  <path d="M15 50 L25 55 L25 45 Z" fill="#F59E0B" />
  <path d="M85 50 L75 55 L75 45 Z" fill="#F59E0B" />
  <path d="M25 25 L35 35 L25 35 Z" fill="#F59E0B" />
  <path d="M75 75 L65 65 L75 65 Z" fill="#F59E0B" />
  <path d="M25 75 L35 65 L25 65 Z" fill="#F59E0B" />
  <path d="M75 25 L65 35 L75 35 Z" fill="#F59E0B" />
  <circle cx="50" cy="50" r="10" fill="#F59E0B" opacity="0.5" />
  <circle cx="50" cy="50" r="5" fill="#F59E0B" />
</svg> 